<?xml version="1.0" encoding="UTF-8" standalone="no"?><svg xmlns="http://www.w3.org/2000/svg" xmlns:xlink="http://www.w3.org/1999/xlink" contentScriptType="application/ecmascript" contentStyleType="text/css" height="910px" preserveAspectRatio="none" style="width:532px;height:910px;" version="1.1" viewBox="0 0 532 910" width="532px" zoomAndPan="magnify"><defs><filter height="300%" id="f18hcz8spnmzbw" width="300%" x="-1" y="-1"><feGaussianBlur result="blurOut" stdDeviation="2.0"/><feColorMatrix in="blurOut" result="blurOut2" type="matrix" values="0 0 0 0 0 0 0 0 0 0 0 0 0 0 0 0 0 0 .4 0"/><feOffset dx="4.0" dy="4.0" in="blurOut2" result="blurOut3"/><feBlend in="SourceGraphic" in2="blurOut3" mode="normal"/></filter></defs><g><text fill="#000000" font-family="sans-serif" font-size="18" lengthAdjust="spacingAndGlyphs" textLength="197" x="171" y="18.6855">Classes - Class Diagram</text><!--class Customer--><rect fill="#FEFECE" filter="url(#f18hcz8spnmzbw)" height="371.3086" id="Customer" style="stroke: #A80036; stroke-width: 1.5;" width="125" x="228.5" y="494.6406"/><ellipse cx="260.6" cy="510.6406" fill="#ADD1B2" rx="11" ry="11" style="stroke: #A80036; stroke-width: 1.0;"/><path d="M263.3656,506.5156 Q263.5219,506.2969 263.7094,506.1875 Q263.8969,506.0781 264.1156,506.0781 Q264.4906,506.0781 264.725,506.3359 Q264.9594,506.5938 264.9594,507.2031 L264.9594,508.6563 Q264.9594,509.2656 264.725,509.5313 Q264.4906,509.7969 264.1156,509.7969 Q263.7719,509.7969 263.5688,509.5938 Q263.3656,509.4063 263.2563,508.8906 Q263.2094,508.5313 263.0219,508.3438 Q262.6938,507.9688 262.0844,507.75 Q261.475,507.5313 260.85,507.5313 Q260.0844,507.5313 259.4516,507.8594 Q258.8188,508.1875 258.3266,508.9375 Q257.8344,509.6875 257.8344,510.7188 L257.8344,511.8125 Q257.8344,513.0469 258.725,513.8672 Q259.6156,514.6875 261.2094,514.6875 Q262.1469,514.6875 262.8031,514.4375 Q263.1938,514.2813 263.6156,513.8438 Q263.8813,513.5781 264.0297,513.5 Q264.1781,513.4219 264.3813,513.4219 Q264.7094,513.4219 264.9672,513.6797 Q265.225,513.9375 265.225,514.2813 Q265.225,514.625 264.8813,515.0313 Q264.3813,515.6094 263.5844,515.9375 Q262.5063,516.3906 261.2094,516.3906 Q259.6938,516.3906 258.4906,515.7656 Q257.5063,515.2656 256.8188,514.1953 Q256.1313,513.125 256.1313,511.8438 L256.1313,510.6875 Q256.1313,509.3594 256.7484,508.2109 Q257.3656,507.0625 258.4594,506.4453 Q259.5531,505.8281 260.7875,505.8281 Q261.5219,505.8281 262.1703,505.9922 Q262.8188,506.1563 263.3656,506.5156 Z "/><text fill="#000000" font-family="sans-serif" font-size="12" lengthAdjust="spacingAndGlyphs" textLength="55" x="278.4" y="515.5508">Customer</text><line style="stroke: #A80036; stroke-width: 1.5;" x1="229.5" x2="352.5" y1="526.6406" y2="526.6406"/><text fill="#000000" font-family="sans-serif" font-size="11" lengthAdjust="spacingAndGlyphs" textLength="26" x="234.5" y="559.8955">-Int id</text><text fill="#000000" font-family="sans-serif" font-size="11" lengthAdjust="spacingAndGlyphs" textLength="80" x="234.5" y="573.7314">-String firstname</text><text fill="#000000" font-family="sans-serif" font-size="11" lengthAdjust="spacingAndGlyphs" textLength="78" x="234.5" y="587.5674">-String lastname</text><text fill="#000000" font-family="sans-serif" font-size="11" lengthAdjust="spacingAndGlyphs" textLength="59" x="234.5" y="601.4033">-String email</text><text fill="#000000" font-family="sans-serif" font-size="11" lengthAdjust="spacingAndGlyphs" textLength="69" x="234.5" y="615.2393">-String adress</text><text fill="#000000" font-family="sans-serif" font-size="11" lengthAdjust="spacingAndGlyphs" textLength="65" x="234.5" y="629.0752">-String phone</text><text fill="#000000" font-family="sans-serif" font-size="11" lengthAdjust="spacingAndGlyphs" textLength="76" x="234.5" y="642.9111">-date birth_date</text><text fill="#000000" font-family="sans-serif" font-size="11" lengthAdjust="spacingAndGlyphs" textLength="110" x="234.5" y="656.7471">-String coastal_license</text><text fill="#000000" font-family="sans-serif" font-size="11" lengthAdjust="spacingAndGlyphs" textLength="63" x="234.5" y="670.583">-int reduction</text><text fill="#000000" font-family="sans-serif" font-size="11" lengthAdjust="spacingAndGlyphs" textLength="0" x="237.5" y="684.4189"/><line style="stroke: #A80036; stroke-width: 1.5;" x1="229.5" x2="273.5" y1="541.5586" y2="541.5586"/><text fill="#000000" font-family="sans-serif" font-size="11" lengthAdjust="spacingAndGlyphs" textLength="35" x="273.5" y="545.5596">Attribut</text><line style="stroke: #A80036; stroke-width: 1.5;" x1="308.5" x2="352.5" y1="541.5586" y2="541.5586"/><line style="stroke: #A80036; stroke-width: 1.0;" x1="229.5" x2="273.5" y1="697.7539" y2="697.7539"/><text fill="#000000" font-family="sans-serif" font-size="11" lengthAdjust="spacingAndGlyphs" textLength="35" x="273.5" y="701.7549">Method</text><line style="stroke: #A80036; stroke-width: 1.0;" x1="308.5" x2="352.5" y1="697.7539" y2="697.7539"/><text fill="#000000" font-family="sans-serif" font-size="11" lengthAdjust="spacingAndGlyphs" textLength="57" x="234.5" y="736.8447">+getId() : Int</text><text fill="#000000" font-family="sans-serif" font-size="11" lengthAdjust="spacingAndGlyphs" textLength="113" x="234.5" y="750.6807">+getFirstname() : String</text><line style="stroke: #A80036; stroke-width: 1.0; stroke-dasharray: 1.0,2.0;" x1="229.5" x2="276" y1="718.5078" y2="718.5078"/><text fill="#000000" font-family="sans-serif" font-size="11" lengthAdjust="spacingAndGlyphs" textLength="30" x="276" y="722.5088">Getter</text><line style="stroke: #A80036; stroke-width: 1.0; stroke-dasharray: 1.0,2.0;" x1="306" x2="352.5" y1="718.5078" y2="718.5078"/><line style="stroke: #A80036; stroke-width: 1.0; stroke-dasharray: 1.0,2.0;" x1="229.5" x2="352.5" y1="757.0977" y2="757.0977"/><text fill="#000000" font-family="sans-serif" font-size="11" lengthAdjust="spacingAndGlyphs" textLength="97" x="234.5" y="772.5166">and other Getters ...</text><text fill="#000000" font-family="sans-serif" font-size="11" lengthAdjust="spacingAndGlyphs" textLength="0" x="237.5" y="786.3525"/><text fill="#000000" font-family="sans-serif" font-size="11" lengthAdjust="spacingAndGlyphs" textLength="113" x="234.5" y="818.0244">+setFirstname() : String</text><text fill="#000000" font-family="sans-serif" font-size="11" lengthAdjust="spacingAndGlyphs" textLength="113" x="234.5" y="831.8604">+setLastname() : String</text><text fill="#000000" font-family="sans-serif" font-size="11" lengthAdjust="spacingAndGlyphs" textLength="6" x="234.5" y="845.6963">..</text><text fill="#000000" font-family="sans-serif" font-size="11" lengthAdjust="spacingAndGlyphs" textLength="96" x="234.5" y="859.5322">and other Setters ...</text><line style="stroke: #A80036; stroke-width: 1.0; stroke-dasharray: 1.0,2.0;" x1="229.5" x2="276.5" y1="799.6875" y2="799.6875"/><text fill="#000000" font-family="sans-serif" font-size="11" lengthAdjust="spacingAndGlyphs" textLength="29" x="276.5" y="803.6885">Setter</text><line style="stroke: #A80036; stroke-width: 1.0; stroke-dasharray: 1.0,2.0;" x1="305.5" x2="352.5" y1="799.6875" y2="799.6875"/><!--class Equipement--><rect fill="#FEFECE" filter="url(#f18hcz8spnmzbw)" height="390.9805" id="Equipement" style="stroke: #A80036; stroke-width: 1.5;" width="132" x="389" y="484.6406"/><ellipse cx="418.85" cy="500.6406" fill="#ADD1B2" rx="11" ry="11" style="stroke: #A80036; stroke-width: 1.0;"/><path d="M421.6156,496.5156 Q421.7719,496.2969 421.9594,496.1875 Q422.1469,496.0781 422.3656,496.0781 Q422.7406,496.0781 422.975,496.3359 Q423.2094,496.5938 423.2094,497.2031 L423.2094,498.6563 Q423.2094,499.2656 422.975,499.5313 Q422.7406,499.7969 422.3656,499.7969 Q422.0219,499.7969 421.8188,499.5938 Q421.6156,499.4063 421.5063,498.8906 Q421.4594,498.5313 421.2719,498.3438 Q420.9438,497.9688 420.3344,497.75 Q419.725,497.5313 419.1,497.5313 Q418.3344,497.5313 417.7016,497.8594 Q417.0688,498.1875 416.5766,498.9375 Q416.0844,499.6875 416.0844,500.7188 L416.0844,501.8125 Q416.0844,503.0469 416.975,503.8672 Q417.8656,504.6875 419.4594,504.6875 Q420.3969,504.6875 421.0531,504.4375 Q421.4438,504.2813 421.8656,503.8438 Q422.1313,503.5781 422.2797,503.5 Q422.4281,503.4219 422.6313,503.4219 Q422.9594,503.4219 423.2172,503.6797 Q423.475,503.9375 423.475,504.2813 Q423.475,504.625 423.1313,505.0313 Q422.6313,505.6094 421.8344,505.9375 Q420.7563,506.3906 419.4594,506.3906 Q417.9438,506.3906 416.7406,505.7656 Q415.7563,505.2656 415.0688,504.1953 Q414.3813,503.125 414.3813,501.8438 L414.3813,500.6875 Q414.3813,499.3594 414.9984,498.2109 Q415.6156,497.0625 416.7094,496.4453 Q417.8031,495.8281 419.0375,495.8281 Q419.7719,495.8281 420.4203,495.9922 Q421.0688,496.1563 421.6156,496.5156 Z "/><text fill="#000000" font-family="sans-serif" font-size="12" lengthAdjust="spacingAndGlyphs" textLength="67" x="436.15" y="505.5508">Equipement</text><line style="stroke: #A80036; stroke-width: 1.5;" x1="390" x2="520" y1="516.6406" y2="516.6406"/><text fill="#000000" font-family="sans-serif" font-size="11" lengthAdjust="spacingAndGlyphs" textLength="26" x="395" y="549.8955">-Int id</text><text fill="#000000" font-family="sans-serif" font-size="11" lengthAdjust="spacingAndGlyphs" textLength="61" x="395" y="563.7314">-String name</text><text fill="#000000" font-family="sans-serif" font-size="11" lengthAdjust="spacingAndGlyphs" textLength="88" x="395" y="577.5674">-String description</text><text fill="#000000" font-family="sans-serif" font-size="11" lengthAdjust="spacingAndGlyphs" textLength="50" x="395" y="591.4033">-Int power</text><text fill="#000000" font-family="sans-serif" font-size="11" lengthAdjust="spacingAndGlyphs" textLength="78" x="395" y="605.2393">-Boolean isValid</text><text fill="#000000" font-family="sans-serif" font-size="11" lengthAdjust="spacingAndGlyphs" textLength="57" x="395" y="619.0752">-array price</text><text fill="#000000" font-family="sans-serif" font-size="11" lengthAdjust="spacingAndGlyphs" textLength="0" x="398" y="632.9111"/><line style="stroke: #A80036; stroke-width: 1.5;" x1="390" x2="437.5" y1="531.5586" y2="531.5586"/><text fill="#000000" font-family="sans-serif" font-size="11" lengthAdjust="spacingAndGlyphs" textLength="35" x="437.5" y="535.5596">Attribut</text><line style="stroke: #A80036; stroke-width: 1.5;" x1="472.5" x2="520" y1="531.5586" y2="531.5586"/><line style="stroke: #A80036; stroke-width: 1.0;" x1="390" x2="437.5" y1="646.2461" y2="646.2461"/><text fill="#000000" font-family="sans-serif" font-size="11" lengthAdjust="spacingAndGlyphs" textLength="35" x="437.5" y="650.2471">Method</text><line style="stroke: #A80036; stroke-width: 1.0;" x1="472.5" x2="520" y1="646.2461" y2="646.2461"/><text fill="#000000" font-family="sans-serif" font-size="11" lengthAdjust="spacingAndGlyphs" textLength="57" x="395" y="685.3369">+getId() : Int</text><text fill="#000000" font-family="sans-serif" font-size="11" lengthAdjust="spacingAndGlyphs" textLength="93" x="395" y="699.1729">+getName() : String</text><text fill="#000000" font-family="sans-serif" font-size="11" lengthAdjust="spacingAndGlyphs" textLength="120" x="395" y="713.0088">+getDescription() : String</text><text fill="#000000" font-family="sans-serif" font-size="11" lengthAdjust="spacingAndGlyphs" textLength="98" x="395" y="726.8447">+getPower() : String</text><text fill="#000000" font-family="sans-serif" font-size="11" lengthAdjust="spacingAndGlyphs" textLength="109" x="395" y="740.6807">+getIsValid() : Boolean</text><text fill="#000000" font-family="sans-serif" font-size="11" lengthAdjust="spacingAndGlyphs" textLength="90" x="395" y="754.5166">+getPrice() : String</text><text fill="#000000" font-family="sans-serif" font-size="11" lengthAdjust="spacingAndGlyphs" textLength="0" x="398" y="768.3525"/><line style="stroke: #A80036; stroke-width: 1.0; stroke-dasharray: 1.0,2.0;" x1="390" x2="423" y1="667" y2="667"/><text fill="#000000" font-family="sans-serif" font-size="11" lengthAdjust="spacingAndGlyphs" textLength="64" x="423" y="671.001">Simple Getter</text><line style="stroke: #A80036; stroke-width: 1.0; stroke-dasharray: 1.0,2.0;" x1="487" x2="520" y1="667" y2="667"/><text fill="#000000" font-family="sans-serif" font-size="11" lengthAdjust="spacingAndGlyphs" textLength="93" x="395" y="800.0244">+setName() : String</text><text fill="#000000" font-family="sans-serif" font-size="11" lengthAdjust="spacingAndGlyphs" textLength="120" x="395" y="813.8604">+setDescription() : String</text><text fill="#000000" font-family="sans-serif" font-size="11" lengthAdjust="spacingAndGlyphs" textLength="98" x="395" y="827.6963">+setPower() : String</text><text fill="#000000" font-family="sans-serif" font-size="11" lengthAdjust="spacingAndGlyphs" textLength="109" x="395" y="841.5322">+setIsValid() : Boolean</text><text fill="#000000" font-family="sans-serif" font-size="11" lengthAdjust="spacingAndGlyphs" textLength="88" x="395" y="855.3682">+setPrice() : array</text><text fill="#000000" font-family="sans-serif" font-size="11" lengthAdjust="spacingAndGlyphs" textLength="0" x="398" y="869.2041"/><line style="stroke: #A80036; stroke-width: 1.0; stroke-dasharray: 1.0,2.0;" x1="390" x2="424" y1="781.6875" y2="781.6875"/><text fill="#000000" font-family="sans-serif" font-size="11" lengthAdjust="spacingAndGlyphs" textLength="62" x="424" y="785.6885">Simple setter</text><line style="stroke: #A80036; stroke-width: 1.0; stroke-dasharray: 1.0,2.0;" x1="486" x2="520" y1="781.6875" y2="781.6875"/><!--class Staff--><rect fill="#FEFECE" filter="url(#f18hcz8spnmzbw)" height="438.6523" id="Staff" style="stroke: #A80036; stroke-width: 1.5;" width="125" x="35.5" y="460.6406"/><ellipse cx="81.75" cy="476.6406" fill="#ADD1B2" rx="11" ry="11" style="stroke: #A80036; stroke-width: 1.0;"/><path d="M84.5156,472.5156 Q84.6719,472.2969 84.8594,472.1875 Q85.0469,472.0781 85.2656,472.0781 Q85.6406,472.0781 85.875,472.3359 Q86.1094,472.5938 86.1094,473.2031 L86.1094,474.6563 Q86.1094,475.2656 85.875,475.5313 Q85.6406,475.7969 85.2656,475.7969 Q84.9219,475.7969 84.7188,475.5938 Q84.5156,475.4063 84.4063,474.8906 Q84.3594,474.5313 84.1719,474.3438 Q83.8438,473.9688 83.2344,473.75 Q82.625,473.5313 82,473.5313 Q81.2344,473.5313 80.6016,473.8594 Q79.9688,474.1875 79.4766,474.9375 Q78.9844,475.6875 78.9844,476.7188 L78.9844,477.8125 Q78.9844,479.0469 79.875,479.8672 Q80.7656,480.6875 82.3594,480.6875 Q83.2969,480.6875 83.9531,480.4375 Q84.3438,480.2813 84.7656,479.8438 Q85.0313,479.5781 85.1797,479.5 Q85.3281,479.4219 85.5313,479.4219 Q85.8594,479.4219 86.1172,479.6797 Q86.375,479.9375 86.375,480.2813 Q86.375,480.625 86.0313,481.0313 Q85.5313,481.6094 84.7344,481.9375 Q83.6563,482.3906 82.3594,482.3906 Q80.8438,482.3906 79.6406,481.7656 Q78.6563,481.2656 77.9688,480.1953 Q77.2813,479.125 77.2813,477.8438 L77.2813,476.6875 Q77.2813,475.3594 77.8984,474.2109 Q78.5156,473.0625 79.6094,472.4453 Q80.7031,471.8281 81.9375,471.8281 Q82.6719,471.8281 83.3203,471.9922 Q83.9688,472.1563 84.5156,472.5156 Z "/><text fill="#000000" font-family="sans-serif" font-size="12" lengthAdjust="spacingAndGlyphs" textLength="24" x="102.25" y="481.5508">Staff</text><line style="stroke: #A80036; stroke-width: 1.5;" x1="36.5" x2="159.5" y1="492.6406" y2="492.6406"/><text fill="#000000" font-family="sans-serif" font-size="11" lengthAdjust="spacingAndGlyphs" textLength="26" x="41.5" y="525.8955">-Int id</text><text fill="#000000" font-family="sans-serif" font-size="11" lengthAdjust="spacingAndGlyphs" textLength="80" x="41.5" y="539.7314">-String firstname</text><text fill="#000000" font-family="sans-serif" font-size="11" lengthAdjust="spacingAndGlyphs" textLength="78" x="41.5" y="553.5674">-String lastname</text><text fill="#000000" font-family="sans-serif" font-size="11" lengthAdjust="spacingAndGlyphs" textLength="59" x="41.5" y="567.4033">-String email</text><text fill="#000000" font-family="sans-serif" font-size="11" lengthAdjust="spacingAndGlyphs" textLength="89" x="41.5" y="581.2393">-String ss_number</text><text fill="#000000" font-family="sans-serif" font-size="11" lengthAdjust="spacingAndGlyphs" textLength="81" x="41.5" y="595.0752">-date hiring_date</text><text fill="#000000" font-family="sans-serif" font-size="11" lengthAdjust="spacingAndGlyphs" textLength="69" x="41.5" y="608.9111">-date me_date</text><text fill="#000000" font-family="sans-serif" font-size="11" lengthAdjust="spacingAndGlyphs" textLength="65" x="41.5" y="622.7471">-String status</text><text fill="#000000" font-family="sans-serif" font-size="11" lengthAdjust="spacingAndGlyphs" textLength="110" x="41.5" y="636.583">-String coastal_licence</text><text fill="#000000" font-family="sans-serif" font-size="11" lengthAdjust="spacingAndGlyphs" textLength="70" x="41.5" y="650.4189">-Boolean bees</text><text fill="#000000" font-family="sans-serif" font-size="11" lengthAdjust="spacingAndGlyphs" textLength="57" x="41.5" y="664.2549">-array roles</text><text fill="#000000" font-family="sans-serif" font-size="11" lengthAdjust="spacingAndGlyphs" textLength="85" x="41.5" y="678.0908">-int contract_type</text><line style="stroke: #A80036; stroke-width: 1.5;" x1="36.5" x2="80.5" y1="507.5586" y2="507.5586"/><text fill="#000000" font-family="sans-serif" font-size="11" lengthAdjust="spacingAndGlyphs" textLength="35" x="80.5" y="511.5596">Attribut</text><line style="stroke: #A80036; stroke-width: 1.5;" x1="115.5" x2="159.5" y1="507.5586" y2="507.5586"/><text fill="#000000" font-family="sans-serif" font-size="11" lengthAdjust="spacingAndGlyphs" textLength="85" x="41.5" y="709.7627">-String password</text><text fill="#000000" font-family="sans-serif" font-size="11" lengthAdjust="spacingAndGlyphs" textLength="0" x="44.5" y="723.5986"/><line style="stroke: #A80036; stroke-width: 1.0; stroke-dasharray: 1.0,2.0;" x1="36.5" x2="73.5" y1="691.4258" y2="691.4258"/><text fill="#000000" font-family="sans-serif" font-size="11" lengthAdjust="spacingAndGlyphs" textLength="49" x="73.5" y="695.4268">encrypted</text><line style="stroke: #A80036; stroke-width: 1.0; stroke-dasharray: 1.0,2.0;" x1="122.5" x2="159.5" y1="691.4258" y2="691.4258"/><line style="stroke: #A80036; stroke-width: 1.0;" x1="36.5" x2="80.5" y1="736.9336" y2="736.9336"/><text fill="#000000" font-family="sans-serif" font-size="11" lengthAdjust="spacingAndGlyphs" textLength="35" x="80.5" y="740.9346">Method</text><line style="stroke: #A80036; stroke-width: 1.0;" x1="115.5" x2="159.5" y1="736.9336" y2="736.9336"/><text fill="#000000" font-family="sans-serif" font-size="11" lengthAdjust="spacingAndGlyphs" textLength="57" x="41.5" y="776.0244">+getId() : Int</text><text fill="#000000" font-family="sans-serif" font-size="11" lengthAdjust="spacingAndGlyphs" textLength="113" x="41.5" y="789.8604">+getFirstname() : String</text><line style="stroke: #A80036; stroke-width: 1.0; stroke-dasharray: 1.0,2.0;" x1="36.5" x2="66" y1="757.6875" y2="757.6875"/><text fill="#000000" font-family="sans-serif" font-size="11" lengthAdjust="spacingAndGlyphs" textLength="64" x="66" y="761.6885">Simple Getter</text><line style="stroke: #A80036; stroke-width: 1.0; stroke-dasharray: 1.0,2.0;" x1="130" x2="159.5" y1="757.6875" y2="757.6875"/><line style="stroke: #A80036; stroke-width: 1.0; stroke-dasharray: 1.0,2.0;" x1="36.5" x2="159.5" y1="796.2773" y2="796.2773"/><text fill="#000000" font-family="sans-serif" font-size="11" lengthAdjust="spacingAndGlyphs" textLength="97" x="41.5" y="811.6963">and other Getters ...</text><text fill="#000000" font-family="sans-serif" font-size="11" lengthAdjust="spacingAndGlyphs" textLength="0" x="44.5" y="825.5322"/><text fill="#000000" font-family="sans-serif" font-size="11" lengthAdjust="spacingAndGlyphs" textLength="113" x="41.5" y="857.2041">+setFirstname() : String</text><text fill="#000000" font-family="sans-serif" font-size="11" lengthAdjust="spacingAndGlyphs" textLength="113" x="41.5" y="871.04">+setLastname() : String</text><line style="stroke: #A80036; stroke-width: 1.0; stroke-dasharray: 1.0,2.0;" x1="36.5" x2="67" y1="838.8672" y2="838.8672"/><text fill="#000000" font-family="sans-serif" font-size="11" lengthAdjust="spacingAndGlyphs" textLength="62" x="67" y="842.8682">Simple setter</text><line style="stroke: #A80036; stroke-width: 1.0; stroke-dasharray: 1.0,2.0;" x1="129" x2="159.5" y1="838.8672" y2="838.8672"/><line style="stroke: #A80036; stroke-width: 1.0; stroke-dasharray: 1.0,2.0;" x1="36.5" x2="159.5" y1="877.457" y2="877.457"/><text fill="#000000" font-family="sans-serif" font-size="11" lengthAdjust="spacingAndGlyphs" textLength="96" x="41.5" y="892.876">and other Setters ...</text><!--class Booking--><rect fill="#FEFECE" filter="url(#f18hcz8spnmzbw)" height="351.6367" id="Booking" style="stroke: #A80036; stroke-width: 1.5;" width="139" x="221.5" y="30.6406"/><ellipse cx="264.4" cy="46.6406" fill="#ADD1B2" rx="11" ry="11" style="stroke: #A80036; stroke-width: 1.0;"/><path d="M267.1656,42.5156 Q267.3219,42.2969 267.5094,42.1875 Q267.6969,42.0781 267.9156,42.0781 Q268.2906,42.0781 268.525,42.3359 Q268.7594,42.5938 268.7594,43.2031 L268.7594,44.6563 Q268.7594,45.2656 268.525,45.5313 Q268.2906,45.7969 267.9156,45.7969 Q267.5719,45.7969 267.3688,45.5938 Q267.1656,45.4063 267.0563,44.8906 Q267.0094,44.5313 266.8219,44.3438 Q266.4938,43.9688 265.8844,43.75 Q265.275,43.5313 264.65,43.5313 Q263.8844,43.5313 263.2516,43.8594 Q262.6188,44.1875 262.1266,44.9375 Q261.6344,45.6875 261.6344,46.7188 L261.6344,47.8125 Q261.6344,49.0469 262.525,49.8672 Q263.4156,50.6875 265.0094,50.6875 Q265.9469,50.6875 266.6031,50.4375 Q266.9938,50.2813 267.4156,49.8438 Q267.6813,49.5781 267.8297,49.5 Q267.9781,49.4219 268.1813,49.4219 Q268.5094,49.4219 268.7672,49.6797 Q269.025,49.9375 269.025,50.2813 Q269.025,50.625 268.6813,51.0313 Q268.1813,51.6094 267.3844,51.9375 Q266.3063,52.3906 265.0094,52.3906 Q263.4938,52.3906 262.2906,51.7656 Q261.3063,51.2656 260.6188,50.1953 Q259.9313,49.125 259.9313,47.8438 L259.9313,46.6875 Q259.9313,45.3594 260.5484,44.2109 Q261.1656,43.0625 262.2594,42.4453 Q263.3531,41.8281 264.5875,41.8281 Q265.3219,41.8281 265.9703,41.9922 Q266.6188,42.1563 267.1656,42.5156 Z "/><text fill="#000000" font-family="sans-serif" font-size="12" lengthAdjust="spacingAndGlyphs" textLength="45" x="284.6" y="51.5508">Booking</text><line style="stroke: #A80036; stroke-width: 1.5;" x1="222.5" x2="359.5" y1="62.6406" y2="62.6406"/><text fill="#000000" font-family="sans-serif" font-size="11" lengthAdjust="spacingAndGlyphs" textLength="32" x="227.5" y="95.8955">-id : int</text><text fill="#000000" font-family="sans-serif" font-size="11" lengthAdjust="spacingAndGlyphs" textLength="74" x="227.5" y="109.7314">-date : datetime</text><text fill="#000000" font-family="sans-serif" font-size="11" lengthAdjust="spacingAndGlyphs" textLength="102" x="227.5" y="123.5674">-start_date : datetime</text><text fill="#000000" font-family="sans-serif" font-size="11" lengthAdjust="spacingAndGlyphs" textLength="98" x="227.5" y="137.4033">-end_date : datetime</text><text fill="#000000" font-family="sans-serif" font-size="11" lengthAdjust="spacingAndGlyphs" textLength="61" x="227.5" y="151.2393">-staff_id : int</text><text fill="#000000" font-family="sans-serif" font-size="11" lengthAdjust="spacingAndGlyphs" textLength="87" x="227.5" y="165.0752">-equipment_id : int</text><text fill="#000000" font-family="sans-serif" font-size="11" lengthAdjust="spacingAndGlyphs" textLength="83" x="227.5" y="178.9111">-customer_id : int</text><text fill="#000000" font-family="sans-serif" font-size="11" lengthAdjust="spacingAndGlyphs" textLength="0" x="230.5" y="192.7471"/><text fill="#000000" font-family="sans-serif" font-size="11" lengthAdjust="spacingAndGlyphs" textLength="0" x="230.5" y="206.583"/><line style="stroke: #A80036; stroke-width: 1.5;" x1="222.5" x2="273.5" y1="77.5586" y2="77.5586"/><text fill="#000000" font-family="sans-serif" font-size="11" lengthAdjust="spacingAndGlyphs" textLength="35" x="273.5" y="81.5596">Attribut</text><line style="stroke: #A80036; stroke-width: 1.5;" x1="308.5" x2="359.5" y1="77.5586" y2="77.5586"/><line style="stroke: #A80036; stroke-width: 1.0;" x1="222.5" x2="273.5" y1="219.918" y2="219.918"/><text fill="#000000" font-family="sans-serif" font-size="11" lengthAdjust="spacingAndGlyphs" textLength="35" x="273.5" y="223.9189">Method</text><line style="stroke: #A80036; stroke-width: 1.0;" x1="308.5" x2="359.5" y1="219.918" y2="219.918"/><text fill="#000000" font-family="sans-serif" font-size="11" lengthAdjust="spacingAndGlyphs" textLength="57" x="227.5" y="259.0088">+getId() : Int</text><text fill="#000000" font-family="sans-serif" font-size="11" lengthAdjust="spacingAndGlyphs" textLength="99" x="227.5" y="272.8447">+getdate() : datetime</text><line style="stroke: #A80036; stroke-width: 1.0; stroke-dasharray: 1.0,2.0;" x1="222.5" x2="259" y1="240.6719" y2="240.6719"/><text fill="#000000" font-family="sans-serif" font-size="11" lengthAdjust="spacingAndGlyphs" textLength="64" x="259" y="244.6729">Simple Getter</text><line style="stroke: #A80036; stroke-width: 1.0; stroke-dasharray: 1.0,2.0;" x1="323" x2="359.5" y1="240.6719" y2="240.6719"/><line style="stroke: #A80036; stroke-width: 1.0; stroke-dasharray: 1.0,2.0;" x1="222.5" x2="359.5" y1="279.2617" y2="279.2617"/><text fill="#000000" font-family="sans-serif" font-size="11" lengthAdjust="spacingAndGlyphs" textLength="97" x="227.5" y="294.6807">and other Getters ...</text><text fill="#000000" font-family="sans-serif" font-size="11" lengthAdjust="spacingAndGlyphs" textLength="0" x="230.5" y="308.5166"/><text fill="#000000" font-family="sans-serif" font-size="11" lengthAdjust="spacingAndGlyphs" textLength="99" x="227.5" y="340.1885">+setdate() : datetime</text><text fill="#000000" font-family="sans-serif" font-size="11" lengthAdjust="spacingAndGlyphs" textLength="127" x="227.5" y="354.0244">+setstart_date() : datetime</text><line style="stroke: #A80036; stroke-width: 1.0; stroke-dasharray: 1.0,2.0;" x1="222.5" x2="260" y1="321.8516" y2="321.8516"/><text fill="#000000" font-family="sans-serif" font-size="11" lengthAdjust="spacingAndGlyphs" textLength="62" x="260" y="325.8525">Simple setter</text><line style="stroke: #A80036; stroke-width: 1.0; stroke-dasharray: 1.0,2.0;" x1="322" x2="359.5" y1="321.8516" y2="321.8516"/><line style="stroke: #A80036; stroke-width: 1.0; stroke-dasharray: 1.0,2.0;" x1="222.5" x2="359.5" y1="360.4414" y2="360.4414"/><text fill="#000000" font-family="sans-serif" font-size="11" lengthAdjust="spacingAndGlyphs" textLength="96" x="227.5" y="375.8604">and other Setters ...</text><!--class Leave--><rect fill="#FEFECE" filter="url(#f18hcz8spnmzbw)" height="351.6367" id="Leave" style="stroke: #A80036; stroke-width: 1.5;" width="120" x="6" y="30.6406"/><ellipse cx="45.75" cy="46.6406" fill="#ADD1B2" rx="11" ry="11" style="stroke: #A80036; stroke-width: 1.0;"/><path d="M48.5156,42.5156 Q48.6719,42.2969 48.8594,42.1875 Q49.0469,42.0781 49.2656,42.0781 Q49.6406,42.0781 49.875,42.3359 Q50.1094,42.5938 50.1094,43.2031 L50.1094,44.6563 Q50.1094,45.2656 49.875,45.5313 Q49.6406,45.7969 49.2656,45.7969 Q48.9219,45.7969 48.7188,45.5938 Q48.5156,45.4063 48.4063,44.8906 Q48.3594,44.5313 48.1719,44.3438 Q47.8438,43.9688 47.2344,43.75 Q46.625,43.5313 46,43.5313 Q45.2344,43.5313 44.6016,43.8594 Q43.9688,44.1875 43.4766,44.9375 Q42.9844,45.6875 42.9844,46.7188 L42.9844,47.8125 Q42.9844,49.0469 43.875,49.8672 Q44.7656,50.6875 46.3594,50.6875 Q47.2969,50.6875 47.9531,50.4375 Q48.3438,50.2813 48.7656,49.8438 Q49.0313,49.5781 49.1797,49.5 Q49.3281,49.4219 49.5313,49.4219 Q49.8594,49.4219 50.1172,49.6797 Q50.375,49.9375 50.375,50.2813 Q50.375,50.625 50.0313,51.0313 Q49.5313,51.6094 48.7344,51.9375 Q47.6563,52.3906 46.3594,52.3906 Q44.8438,52.3906 43.6406,51.7656 Q42.6563,51.2656 41.9688,50.1953 Q41.2813,49.125 41.2813,47.8438 L41.2813,46.6875 Q41.2813,45.3594 41.8984,44.2109 Q42.5156,43.0625 43.6094,42.4453 Q44.7031,41.8281 45.9375,41.8281 Q46.6719,41.8281 47.3203,41.9922 Q47.9688,42.1563 48.5156,42.5156 Z "/><text fill="#000000" font-family="sans-serif" font-size="12" lengthAdjust="spacingAndGlyphs" textLength="33" x="65.25" y="51.5508">Leave</text><line style="stroke: #A80036; stroke-width: 1.5;" x1="7" x2="125" y1="62.6406" y2="62.6406"/><text fill="#000000" font-family="sans-serif" font-size="11" lengthAdjust="spacingAndGlyphs" textLength="32" x="12" y="95.8955">-id : int</text><text fill="#000000" font-family="sans-serif" font-size="11" lengthAdjust="spacingAndGlyphs" textLength="61" x="12" y="109.7314">-staff_id : int</text><text fill="#000000" font-family="sans-serif" font-size="11" lengthAdjust="spacingAndGlyphs" textLength="83" x="12" y="123.5674">-start_date : date</text><text fill="#000000" font-family="sans-serif" font-size="11" lengthAdjust="spacingAndGlyphs" textLength="79" x="12" y="137.4033">-end_date : date</text><text fill="#000000" font-family="sans-serif" font-size="11" lengthAdjust="spacingAndGlyphs" textLength="60" x="12" y="151.2393">-type : enum</text><text fill="#000000" font-family="sans-serif" font-size="11" lengthAdjust="spacingAndGlyphs" textLength="62" x="12" y="165.0752">-details : text</text><text fill="#000000" font-family="sans-serif" font-size="11" lengthAdjust="spacingAndGlyphs" textLength="0" x="15" y="178.9111"/><text fill="#000000" font-family="sans-serif" font-size="11" lengthAdjust="spacingAndGlyphs" textLength="0" x="15" y="192.7471"/><line style="stroke: #A80036; stroke-width: 1.5;" x1="7" x2="48.5" y1="77.5586" y2="77.5586"/><text fill="#000000" font-family="sans-serif" font-size="11" lengthAdjust="spacingAndGlyphs" textLength="35" x="48.5" y="81.5596">Attribut</text><line style="stroke: #A80036; stroke-width: 1.5;" x1="83.5" x2="125" y1="77.5586" y2="77.5586"/><line style="stroke: #A80036; stroke-width: 1.0;" x1="7" x2="48.5" y1="206.082" y2="206.082"/><text fill="#000000" font-family="sans-serif" font-size="11" lengthAdjust="spacingAndGlyphs" textLength="35" x="48.5" y="210.083">Method</text><line style="stroke: #A80036; stroke-width: 1.0;" x1="83.5" x2="125" y1="206.082" y2="206.082"/><text fill="#000000" font-family="sans-serif" font-size="11" lengthAdjust="spacingAndGlyphs" textLength="57" x="12" y="245.1729">+getId() : Int</text><text fill="#000000" font-family="sans-serif" font-size="11" lengthAdjust="spacingAndGlyphs" textLength="88" x="12" y="259.0088">+getType() : enum</text><line style="stroke: #A80036; stroke-width: 1.0; stroke-dasharray: 1.0,2.0;" x1="7" x2="34" y1="226.8359" y2="226.8359"/><text fill="#000000" font-family="sans-serif" font-size="11" lengthAdjust="spacingAndGlyphs" textLength="64" x="34" y="230.8369">Simple Getter</text><line style="stroke: #A80036; stroke-width: 1.0; stroke-dasharray: 1.0,2.0;" x1="98" x2="125" y1="226.8359" y2="226.8359"/><line style="stroke: #A80036; stroke-width: 1.0; stroke-dasharray: 1.0,2.0;" x1="7" x2="125" y1="265.4258" y2="265.4258"/><text fill="#000000" font-family="sans-serif" font-size="11" lengthAdjust="spacingAndGlyphs" textLength="97" x="12" y="280.8447">and other Getters ...</text><text fill="#000000" font-family="sans-serif" font-size="11" lengthAdjust="spacingAndGlyphs" textLength="0" x="15" y="294.6807"/><text fill="#000000" font-family="sans-serif" font-size="11" lengthAdjust="spacingAndGlyphs" textLength="0" x="15" y="308.5166"/><text fill="#000000" font-family="sans-serif" font-size="11" lengthAdjust="spacingAndGlyphs" textLength="108" x="12" y="340.1885">+setstart_date() : date</text><text fill="#000000" font-family="sans-serif" font-size="11" lengthAdjust="spacingAndGlyphs" textLength="104" x="12" y="354.0244">+setend_date() : date</text><line style="stroke: #A80036; stroke-width: 1.0; stroke-dasharray: 1.0,2.0;" x1="7" x2="35" y1="321.8516" y2="321.8516"/><text fill="#000000" font-family="sans-serif" font-size="11" lengthAdjust="spacingAndGlyphs" textLength="62" x="35" y="325.8525">Simple setter</text><line style="stroke: #A80036; stroke-width: 1.0; stroke-dasharray: 1.0,2.0;" x1="97" x2="125" y1="321.8516" y2="321.8516"/><line style="stroke: #A80036; stroke-width: 1.0; stroke-dasharray: 1.0,2.0;" x1="7" x2="125" y1="360.4414" y2="360.4414"/><text fill="#000000" font-family="sans-serif" font-size="11" lengthAdjust="spacingAndGlyphs" textLength="96" x="12" y="375.8604">and other Setters ...</text><!--reverse link Booking to Equipement--><path d="M363.701,394.9606 C365.847,400.9146 367.952,406.8196 370,412.6406 C378.139,435.7756 386.375,460.1536 394.352,484.3836 " fill="none" id="Booking&lt;-Equipement" style="stroke: #A80036; stroke-width: 1.0;"/><polygon fill="#A80036" points="359.243,382.6816,357.5313,389.6866,363.339,393.9609,365.0508,386.9559,359.243,382.6816" style="stroke: #A80036; stroke-width: 1.0;"/><text fill="#000000" font-family="sans-serif" font-size="13" lengthAdjust="spacingAndGlyphs" textLength="72" x="376" y="427.1357">Composition</text><text fill="#000000" font-family="sans-serif" font-size="13" lengthAdjust="spacingAndGlyphs" textLength="32" x="329.447" y="403.9561">many</text><text fill="#000000" font-family="sans-serif" font-size="13" lengthAdjust="spacingAndGlyphs" textLength="32" x="359.3579" y="473.9267">many</text><!--reverse link Booking to Customer--><path d="M291,396.1866 C291,428.5796 291,462.2116 291,494.5006 " fill="none" id="Booking&lt;-Customer" style="stroke: #A80036; stroke-width: 1.0;"/><polygon fill="#FFFFFF" points="291,382.8746,287,388.8746,291,394.8746,295,388.8746,291,382.8746" style="stroke: #A80036; stroke-width: 1.0;"/><text fill="#000000" font-family="sans-serif" font-size="13" lengthAdjust="spacingAndGlyphs" textLength="69" x="292" y="427.1357">Aggregation</text><text fill="#000000" font-family="sans-serif" font-size="13" lengthAdjust="spacingAndGlyphs" textLength="7" x="283.8633" y="403.5803">1</text><text fill="#000000" font-family="sans-serif" font-size="13" lengthAdjust="spacingAndGlyphs" textLength="7" x="283.8523" y="483.8275">1</text><!--reverse link Booking to Staff--><path d="M216.418,389.8446 C197.981,434.8876 178.416,482.6836 160.614,526.1756 " fill="none" id="Booking&lt;-Staff" style="stroke: #A80036; stroke-width: 1.0;"/><polygon fill="#A80036" points="221.459,377.5296,215.4843,381.5674,216.9136,388.6354,222.8882,384.5977,221.459,377.5296" style="stroke: #A80036; stroke-width: 1.0;"/><text fill="#000000" font-family="sans-serif" font-size="13" lengthAdjust="spacingAndGlyphs" textLength="72" x="208" y="427.1357">Composition</text><text fill="#000000" font-family="sans-serif" font-size="13" lengthAdjust="spacingAndGlyphs" textLength="32" x="181.5732" y="390.074">many</text><text fill="#000000" font-family="sans-serif" font-size="13" lengthAdjust="spacingAndGlyphs" textLength="32" x="168.7211" y="507.0042">many</text><!--link Leave to Staff--><path d="M63.2676,382.6576 C63.1625,392.8016 63.0716,402.8526 63,412.6406 C62.9415,420.6406 62.4408,422.6606 63,430.6406 C63.3855,436.1416 63.8184,441.7056 64.2931,447.3136 " fill="none" id="Leave-&gt;Staff" style="stroke: #A80036; stroke-width: 1.0;"/><polygon fill="#FFFFFF" points="65.4739,460.4686,68.9212,454.1349,64.4005,448.5167,60.9532,454.8505,65.4739,460.4686" style="stroke: #A80036; stroke-width: 1.0;"/><text fill="#000000" font-family="sans-serif" font-size="13" lengthAdjust="spacingAndGlyphs" textLength="69" x="64" y="427.1357">Aggregation</text><text fill="#000000" font-family="sans-serif" font-size="13" lengthAdjust="spacingAndGlyphs" textLength="7" x="56.0047" y="403.931">1</text><text fill="#000000" font-family="sans-serif" font-size="13" lengthAdjust="spacingAndGlyphs" textLength="7" x="57.1792" y="449.7943">1</text><!--
@startuml

title Classes - Class Diagram

skinparam classAttributeIconSize 0


class Customer{
    __ Attribut __
    -Int id
    -String firstname
    -String lastname
    -String email
    -String adress
    -String phone
    -date birth_date
    -String coastal_license
    -int reduction

    - - Method - -
    .. Getter ..
    + getId() : Int
    + getFirstname() : String
    ..
    and other Getters ...

    .. Setter ..
    + setFirstname() : String
    + setLastname() : String
        ..
    and other Setters ...
}

class Equipement {
    __ Attribut __
    -Int id
    -String name
    -String description
    -Int power
    -Boolean isValid
    -array price

    - - Method - -
    .. Simple Getter ..
    + getId() : Int
    + getName() : String
    + getDescription() : String
    + getPower() : String
    + getIsValid() : Boolean
    + getPrice() : String

    .. Simple setter ..
    + setName() : String
    + setDescription() : String
    + setPower() : String
    + setIsValid() : Boolean
    + setPrice() : array

}


class Staff{
    __ Attribut __
    -Int id
    -String firstname
    -String lastname
    -String email
    -String ss_number
    -date hiring_date
    -date me_date
    -String status
    -String coastal_licence
    -Boolean bees
    -array roles
    -int contract_type
    .. encrypted ..
    -String password

    - - Method - -
    .. Simple Getter ..
    + getId() : Int
    + getFirstname() : String
    ..
    and other Getters ...

    .. Simple setter ..
    + setFirstname() : String
    + setLastname() : String
    ..
    and other Setters ...
}


class Booking{
    __ Attribut __
    - id : int 
	- date : datetime 
	- start_date : datetime 
	- end_date : datetime 
	- staff_id : int
	- equipment_id : int
	- customer_id : int 


    - - Method - -
    .. Simple Getter ..
    + getId() : Int
    + getdate() : datetime
    ..
    and other Getters ...

    .. Simple setter ..
    + setdate() : datetime
    + setstart_date() : datetime
    ..
    and other Setters ...
}


class Leave {
    __ Attribut __
    - id : int 
	- staff_id : int
	- start_date : date 
	- end_date : date
	- type : enum
	- details : text 


    - - Method - -
    .. Simple Getter ..
    + getId() : Int
    + getType() : enum
    ..
    and other Getters ...


    .. Simple setter ..
    + setstart_date() : date
    + setend_date() : date
    ..
    and other Setters ...
}

Booking "many"*-down-"many" Equipement: Composition
Booking  "1" o-down- "1" Customer: Aggregation
Booking "many"*-down-"many" Staff: Composition
Staff "1" o-up- "1" Leave: Aggregation


@enduml

PlantUML version 1.2019.09(Mon Aug 26 18:19:51 CEST 2019)
(GPL source distribution)
Java Runtime: Java(TM) SE Runtime Environment
JVM: Java HotSpot(TM) 64-Bit Server VM
Java Version: 1.8.0_231-b11
Operating System: Windows 10
OS Version: 10.0
Default Encoding: Cp1252
Language: fr
Country: FR
--></g></svg>